#!OML:ASF H:\Terrain\Patient Classification 1\Terrain2\Thursday\justin.ASF
:FULLY-SPECIFIED
:DEGREES
1887
root 19.4549 20.4617 -5.35689 185.425 -11.9647 -177.189
lowerback 8.14087 0.604743 0.267366
upperback 3.81957 0.493655 3.5996
thorax -0.641185 0.0597479 3.52965
lowerneck -11.1373 2.2664 -10.1826
upperneck 39.0708 0.57296 2.39541
head 15.5558 -2.3778 2.53672
rclavicle 9.93923e-016 -8.74653e-015
rhumerus -31.3601 -10.9606 -78.5051
rradius 28.0157
rwrist -9.98784
rhand -19.6355 12.1307
rfingers 7.12502
rthumb 6.69171 -17.7436
lclavicle 9.93923e-016 -8.74653e-015
lhumerus -37.9025 4.9876 82.7793
lradius 36.0371
lwrist 8.58255
lhand -23.5323 20.0156
lfingers 7.12502
lthumb 2.92901 49.9752
rfemur -33.0259 -4.68616 18.9726
rtibia 32.6565
rfoot -7.28243 1.89049
rtoes 5.03469
lfemur 1.48133 -8.72527 -14.9353
ltibia 27.5874
lfoot -15.6992 -14.5415
ltoes 3.84766
1888
root 19.4805 20.4774 -5.46086 185.492 -12.0171 -177.721
lowerback 8.11022 0.600317 -0.0958003
upperback 3.81028 0.474602 3.45153
thorax -0.635372 0.0540466 3.58256
lowerneck -10.873 2.27417 -10.1228
upperneck 38.8706 0.65825 2.12063
head 15.391 -2.35636 2.41818
rclavicle 9.54166e-015 -9.54166e-015
rhumerus -31.4018 -11.0182 -78.4882
rradius 27.4899
rwrist -9.83549
rhand -19.5615 11.9689
rfingers 7.12502
rthumb 6.7631 -17.903
lclavicle 9.54166e-015 -9.54166e-015
lhumerus -38.044 5.57789 82.2727
lradius 35.8222
lwrist 7.30083
lhand -22.2681 18.6483
lfingers 7.12502
lthumb 4.14993 48.5876
rfemur -32.6649 -5.18732 18.5911
rtibia 32.7451
rfoot -7.4018 2.42529
rtoes 3.71175
lfemur 1.55963 -9.11269 -15.4745
ltibia 27.997
lfoot -14.719 -14.2464
ltoes 3.13302
1889
root 19.505 20.4927 -5.56969 185.444 -12.0357 -177.994
lowerback 8.06232 0.591751 -0.289843
upperback 3.88619 0.441518 3.47097
thorax -0.530057 0.0314033 3.71561
lowerneck -10.8762 2.26858 -10.2922
upperneck 38.7513 0.794127 1.94763
head 15.3264 -2.33401 2.39498
rclavicle -8.54774e-015 2.3059e-014
rhumerus -31.2561 -11.0796 -78.3548
rradius 27.0413
rwrist -9.54152
rhand -19.4849 12.0459
rfingers 7.12502
rthumb 6.83707 -17.8237
lclavicle -8.54774e-015 2.3059e-014
lhumerus -38.0494 5.30084 82.6565
lradius 36.2041
lwrist 8.74171
lhand -23.5035 20.1758
lfingers 7.12502
lthumb 2.95685 50.1351
rfemur -32.2196 -5.8986 18.6044
rtibia 32.761
rfoot -7.45385 3.29639
rtoes 2.552
lfemur 1.70127 -9.25607 -15.7261
ltibia 28.547
lfoot -14.1045 -14.0122
ltoes -0.217648
1890
root 19.5342 20.5073 -5.66867 185.507 -12.0031 -177.828
lowerback 7.93765 0.588257 -0.0712169
upperback 3.90119 0.444576 3.54164
thorax -0.444445 0.0315586 3.66503
lowerneck -11.1961 2.31511 -10.2816
upperneck 38.9091 0.936757 1.88732
head 15.4719 -2.28733 2.39222
rclavicle -9.93923e-015 2.94201e-014
rhumerus -31.1839 -11.3392 -78.307
rradius 26.8462
rwrist -9.10879
rhand -19.5047 12.1846
rfingers 7.12502
rthumb 6.81796 -17.6856
lclavicle -9.93923e-015 2.94201e-014
lhumerus -38.0078 5.20901 82.6581
lradius 36.3349
lwrist 9.15589
lhand -24.0613 20.7478
lfingers 7.12502
lthumb 2.41819 50.7138
rfemur -31.9871 -6.18893 19.0506
rtibia 32.6459
rfoot -7.30094 3.98497
rtoes 3.97298
lfemur 1.48928 -9.34111 -15.4445
ltibia 29.2659
lfoot -13.3283 -13.8029
ltoes -2.13537
1891
root 19.5676 20.524 -5.76415 185.408 -11.9638 -176.97
lowerback 7.89285 0.688403 0.914036
upperback 3.91751 0.622746 3.70523
thorax -0.403378 0.120915 3.26334
lowerneck -11.5124 2.29993 -10.0871
upperneck 39.1621 0.925752 1.79826
head 15.6801 -2.28945 2.32129
rclavicle -8.15017e-015 -8.50798e-014
rhumerus -31.1706 -11.5849 -78.3945
rradius 26.6634
rwrist -9.20553
rhand -19.886 12.4923
rfingers 7.12502
rthumb 6.44985 -17.3895
lclavicle -8.15017e-015 -8.50798e-014
lhumerus -37.8924 4.96551 82.586
lradius 36.2545
lwrist 9.19705
lhand -24.5575 20.4415
lfingers 7.12502
lthumb 1.93897 50.4124
rfemur -31.6534 -6.06298 20.1701
rtibia 32.4073
rfoot -7.01948 4.43683
rtoes 5.93178
lfemur 1.23954 -9.27761 -14.3764
ltibia 30.1365
lfoot -12.6194 -13.5581
ltoes -3.1938
1892
root 19.5971 20.5384 -5.86529 185.149 -11.9471 -176.079
lowerback 7.94369 0.776567 1.9246
upperback 3.96562 0.777625 3.90593
thorax -0.374695 0.19426 2.88942
lowerneck -11.7271 2.3249 -9.89861
upperneck 39.3388 0.977261 1.69496
head 15.8214 -2.2628 2.25376
rclavicle 1.49089e-014 -4.77083e-015
rhumerus -31.1476 -11.4542 -78.5015
rradius 26.5379
rwrist -9.55645
rhand -20.1003 12.6012
rfingers 7.12502
rthumb 6.24294 -17.2868
lclavicle 1.49089e-014 -4.77083e-015
lhumerus -37.7668 4.8364 82.5341
lradius 36.0309
lwrist 9.02465
lhand -24.2624 19.874
lfingers 7.12502
lthumb 2.22398 49.8422
rfemur -31.1061 -6.34294 21.3934
rtibia 32.1541
rfoot -6.76893 5.1377
rtoes 7.32497
lfemur 1.17097 -9.12485 -13.2982
ltibia 31.0766
lfoot -11.8016 -13.4187
ltoes -2.85014
1893
root 19.6232 20.5612 -5.96649 185.013 -11.9493 -175.671
lowerback 7.98987 0.789708 2.39205
upperback 3.98255 0.809355 4.05074
thorax -0.376733 0.205649 2.77422
lowerneck -11.8645 2.39556 -9.82217
upperneck 39.3957 1.172 1.49224
head 15.8746 -2.19941 2.18405
rclavicle -2.34566e-014 -2.3059e-014
rhumerus -31.0407 -11.292 -78.5125
rradius 26.3522
rwrist -9.39011
rhand -19.9725 12.361
rfingers 7.12502
rthumb 6.36634 -17.5233
lclavicle -2.34566e-014 -2.3059e-014
lhumerus -37.785 4.90286 82.4982
lradius 36.006
lwrist 8.65203
lhand -23.5038 19.6624
lfingers 7.12502
lthumb 2.95656 49.6216
rfemur -30.6193 -6.74887 22.0811
rtibia 31.9685
rfoot -6.50014 5.77794
rtoes 9.30508
lfemur 1.007 -9.0829 -12.7705
ltibia 31.9985
lfoot -10.6463 -13.313
ltoes -1.07238
1894
root 19.6493 20.5854 -6.06703 184.951 -11.9787 -175.82
lowerback 8.07143 0.79627 2.40304
upperback 3.92241 0.835716 3.96525
thorax -0.483758 0.22406 2.6763
lowerneck -11.5994 2.44843 -9.70994
upperneck 39.4298 1.17807 1.38947
head 15.8294 -2.20848 2.11558
rclavicle -1.63003e-014 9.54166e-015
rhumerus -31.085 -11.4741 -78.5369
rradius 26.0036
rwrist -8.94538
rhand -19.8037 12.4548
rfingers 7.12502
rthumb 6.52931 -17.4245
lclavicle -1.63003e-014 9.54166e-015
lhumerus -38.03 4.60622 82.5023
lradius 36.1882
lwrist 8.94919
lhand -23.6196 19.2403
lfingers 7.12502
lthumb 2.84472 49.2011
rfemur -30.1382 -7.06482 22.1123
rtibia 31.8465
rfoot -6.29265 6.16407
rtoes 11.2556
lfemur 0.816045 -8.97708 -12.8243
ltibia 32.8745
lfoot -9.42363 -13.2154
ltoes -0.827277
1895
root 19.6777 20.608 -6.16884 184.933 -12.0081 -176.127
lowerback 8.09004 0.730679 2.12884
upperback 3.92843 0.735903 3.91447
thorax -0.489042 0.174337 2.78609
lowerneck -11.7053 2.57609 -9.81225
upperneck 39.6806 1.33143 1.45944
head 15.97 -2.18049 2.18554
rclavicle -2.94201e-014 -6.2816e-014
rhumerus -31.013 -11.1827 -78.6424
rradius 25.8167
rwrist -8.79249
rhand -19.8626 12.8309
rfingers 7.12502
rthumb 6.47241 -17.0502
lclavicle -2.94201e-014 -6.2816e-014
lhumerus -38.1544 4.53889 82.5846
lradius 36.3425
lwrist 9.62254
lhand -24.1051 19.3066
lfingers 7.12502
lthumb 2.37585 49.2731
rfemur -29.6891 -7.40456 22.0115
rtibia 31.7963
rfoot -6.31083 6.43361
rtoes 12.124
lfemur 0.588244 -8.62427 -12.9701
ltibia 33.7233
lfoot -8.22684 -13.1692
ltoes -2.59488
1896
root 19.7106 20.6351 -6.2719 184.889 -11.9711 -176.037
lowerback 8.06354 0.765245 2.23163
upperback 3.90182 0.78984 3.93034
thorax -0.502144 0.202543 2.74023
lowerneck -11.6943 2.66135 -9.7322
upperneck 39.8162 1.42009 1.42102
head 16.0318 -2.15341 2.16668
rclavicle 1.23246e-014 -7.15625e-015
rhumerus -31.0991 -11.028 -78.7192
rradius 25.9095
rwrist -8.63264
rhand -20.3267 12.8706
rfingers 7.12502
rthumb 6.02443 -17.0238
lclavicle 1.23246e-014 -7.15625e-015
lhumerus -38.2952 4.42849 82.5273
lradius 36.4369
lwrist 9.4102
lhand -23.8482 19.4875
lfingers 7.12502
lthumb 2.62396 49.4511
rfemur -29.2938 -7.4049 22.3072
rtibia 31.8419
rfoot -6.42761 6.50338
rtoes 13.3826
lfemur 0.305051 -8.15586 -12.6491
ltibia 34.5824
lfoot -6.96262 -13.1387
ltoes -4.24448
1897
root 19.7409 20.6464 -6.36903 184.785 -11.9203 -175.824
lowerback 8.10129 0.853484 2.52637
upperback 3.85979 0.929633 3.95442
thorax -0.56524 0.274141 2.58736
lowerneck -11.4933 2.69748 -9.47677
upperneck 39.7955 1.45632 1.18008
head 15.9768 -2.13515 2.01929
rclavicle -8.74653e-015 -2.14687e-014
rhumerus -31.2451 -11.0243 -78.7334
rradius 26.0588
rwrist -8.33605
rhand -20.7434 12.3875
rfingers 7.12502
rthumb 5.62212 -17.5179
lclavicle -8.74653e-015 -2.14687e-014
lhumerus -38.4655 4.41257 82.359
lradius 36.4765
lwrist 8.53384
lhand -22.9843 19.4433
lfingers 7.12502
lthumb 3.45828 49.395
rfemur -28.9363 -7.39409 22.7447
rtibia 31.9239
rfoot -6.41061 6.61903
rtoes 14.9663
lfemur 0.033113 -7.75558 -12.2708
ltibia 35.4914
lfoot -5.69528 -12.9203
ltoes -5.49065
1898
root 19.7613 20.6508 -6.46338 184.728 -11.9163 -176.016
lowerback 8.1241 0.905228 2.48931
upperback 3.89179 0.996591 3.89899
thorax -0.546487 0.308475 2.54489
lowerneck -11.5135 2.70204 -9.43976
upperneck 39.7761 1.51184 1.08633
head 15.971 -2.11353 1.98187
rclavicle 2.52457e-014 -3.49861e-014
rhumerus -31.1518 -11.0149 -78.6657
rradius 26.093
rwrist -8.03023
rhand -20.7282 12.0664
rfingers 7.12502
rthumb 5.6368 -17.8386
lclavicle 2.52457e-014 -3.49861e-014
lhumerus -38.3807 4.33706 82.4199
lradius 36.3518
lwrist 8.24831
lhand -22.4332 19.8261
lfingers 7.12502
lthumb 3.99043 49.7685
rfemur -28.6101 -8.10756 22.8839
rtibia 31.9635
rfoot -6.39807 7.2846
rtoes 15.0385
lfemur -0.26095 -7.47376 -12.4208
ltibia 36.4815
lfoot -4.54763 -12.5338
ltoes -6.42132
1899
root 19.7821 20.6683 -6.56234 184.68 -11.9707 -176.127
lowerback 8.12431 0.958253 2.57341
upperback 3.93157 1.07263 3.80565
thorax -0.503978 0.349486 2.39447
lowerneck -11.6774 2.65786 -9.44884
upperneck 39.8004 1.44267 1.24777
head 16.0244 -2.11263 2.04749
rclavicle -2.34566e-014 1.35174e-014
rhumerus -30.9673 -11.3255 -78.5542
rradius 26.0392
rwrist -7.45149
rhand -20.3188 11.9993
rfingers 7.12502
rthumb 6.032 -17.8949
lclavicle -2.34566e-014 1.35174e-014
lhumerus -38.1428 4.28981 82.3198
lradius 35.8418
lwrist 7.63928
lhand -22.1405 18.1522
lfingers 7.12502
lthumb 4.27314 48.0891
rfemur -28.2145 -8.83863 23.0827
rtibia 31.929
rfoot -6.57742 7.89299
rtoes 14.9786
lfemur -0.691917 -7.20885 -12.4435
ltibia 37.5837
lfoot -3.40734 -12.2983
ltoes -6.68768
